<?xml version="1.0" standalone="no"?>
<!DOCTYPE svg PUBLIC "-//W3C//DTD SVG 20010904//EN"
 "http://www.w3.org/TR/2001/REC-SVG-20010904/DTD/svg10.dtd">
<svg version="1.0" xmlns="http://www.w3.org/2000/svg"
 width="70.000000pt" height="70.000000pt" viewBox="0 0 70.000000 70.000000"
 preserveAspectRatio="xMidYMid meet">
<metadata>
Created by potrace 1.14, written by Peter Selinger 2001-2017
</metadata>
<g transform="translate(0.000000,70.000000) scale(0.100000,-0.100000)"
fill="#000000" stroke="none">
<path d="M160 553 c0 -93 2 -101 25 -123 14 -13 28 -20 32 -17 5 6 8 119 3
175 0 9 -14 27 -31 40 l-29 24 0 -99z"/>
<path d="M497 618 c-23 -23 -25 -33 -25 -122 l-1 -96 32 24 c32 25 33 25 32
115 0 49 -3 92 -7 96 -4 4 -18 -4 -31 -17z"/>
<path d="M160 248 c1 -153 1 -153 26 -172 17 -12 29 -15 33 -8 3 5 5 53 5 106
-1 53 1 96 4 96 3 0 31 -20 63 -45 l57 -45 28 22 c16 12 44 35 62 52 l32 30 1
-35 c0 -18 1 -69 1 -111 0 -43 3 -78 6 -78 4 0 18 9 32 19 24 19 25 22 25 169
0 100 -3 148 -10 144 -5 -3 -48 -37 -94 -75 -73 -60 -85 -66 -100 -54 -9 7
-51 42 -93 76 l-78 62 0 -153z"/>
</g>
</svg>
